<?xml version="1.0" standalone="no"?>
<!DOCTYPE svg PUBLIC "-//W3C//DTD SVG 20010904//EN"
 "http://www.w3.org/TR/2001/REC-SVG-20010904/DTD/svg10.dtd">
<svg version="1.0" xmlns="http://www.w3.org/2000/svg"
 width="101.000000pt" height="101.000000pt" viewBox="0 0 101.000000 101.000000"
 preserveAspectRatio="xMidYMid meet">
<metadata>
Created by potrace 1.15, written by Peter Selinger 2001-2017
</metadata>
<g transform="translate(0.000000,101.000000) scale(0.100000,-0.100000)"
fill="#000000" stroke="none">
<path style="fill:#224364;" d="M390 1003 c-63 -12 -173 -74 -234 -133 -129 -124 -182 -295 -145
-472 46 -223 263 -398 492 -398 181 1 360 107 444 265 153 290 9 635 -306 729
-52 15 -189 20 -251 9z m226 -57 c50 -13 127 -51 169 -82 18 -14 17 -17 -40
-74 l-59 -59 -43 39 -43 40 -158 0 c-110 0 -162 -4 -170 -12 -9 -9 -12 -79
-12 -253 l0 -241 -49 -48 -49 -48 -32 47 c-174 253 -41 608 259 690 62 18 164
18 227 1z m294 -240 c156 -327 -112 -695 -470 -645 -66 10 -148 42 -201 80
l-30 21 27 29 c19 20 31 26 38 19 13 -13 435 -13 456 0 12 8 16 46 18 225 2
131 -1 222 -7 232 -8 15 0 28 47 75 53 55 57 57 74 41 11 -9 32 -44 48 -77z
m-340 11 c0 -29 5 -58 12 -65 9 -9 3 -21 -27 -52 l-39 -40 -99 0 c-74 0 -98
-3 -95 -12 3 -8 33 -15 82 -18 l77 -5 -33 -32 c-25 -24 -43 -32 -78 -35 -49
-3 -64 -28 -22 -38 23 -5 22 -6 -12 -39 l-36 -35 0 212 0 212 135 0 135 0 0
-53z m135 -278 l0 -194 -202 -3 c-112 -1 -203 1 -203 6 0 5 12 20 28 35 27 26
30 27 187 29 134 3 160 5 160 18 0 12 -24 16 -138 20 l-138 5 33 32 c33 32 35
32 138 35 85 2 105 6 105 18 0 12 -18 16 -83 20 l-83 5 33 32 c26 25 43 32 82
35 59 4 78 28 22 28 -20 0 -36 2 -36 5 0 11 76 74 85 71 6 -2 10 -76 10 -197z"/>
</g>
</svg>
